<svg viewBox="0 0 30 30" width="30px" height="30px" xmlns="http://www.w3.org/2000/svg">
  <path fill="#ff304e" stroke="#ff304e" d="M 25.157 0.498 L 5.16 0.498 C 3.502 0.498 2.158 1.842 2.158 3.5 L 2.158 6.497 C 2.158 7.261 2.45 7.996 2.973 8.552 L 10.158 16.187 L 10.158 26.498 C 10.158 28.807 12.657 30.25 14.658 29.096 C 14.76 29.036 14.863 28.968 14.958 28.897 L 18.958 25.897 C 19.712 25.33 20.156 24.44 20.156 23.497 L 20.156 16.187 L 27.344 8.552 C 27.866 7.996 28.158 7.261 28.158 6.497 L 28.158 3.5 C 28.158 1.842 26.814 0.498 25.157 0.498 Z M 25.157 6.497 L 17.158 14.998 L 17.158 23.497 L 13.157 26.498 L 13.157 14.998 L 5.16 6.497 L 5.16 3.5 L 25.157 3.5 L 25.157 6.497 Z" style="stroke-width: 0.8px;"/>
</svg>
