<svg viewBox="0 0 30 30" width="30px" height="30px" xmlns="http://www.w3.org/2000/svg">
  <path stroke-width="1.4" stroke="#ff304e" fill="#ff304e" d="M 12.932 19.125 C 12.932 19.125 17.005 19.108 17.005 19.108 C 17.005 19.108 17.005 27.246 17.005 27.246 C 17.005 28.371 17.916 29.282 19.038 29.282 C 20.395 29.282 22.774 29.282 24.129 29.282 C 24.668 29.282 25.186 29.066 25.568 28.686 C 25.949 28.303 26.163 27.786 26.163 27.246 L 26.163 16.05 C 26.163 16.05 28.2 16.05 28.2 16.05 C 28.604 16.05 28.972 15.81 29.134 15.439 C 29.295 15.068 29.221 14.636 28.945 14.34 C 28.945 14.34 20.666 5.424 17.204 1.696 C 16.628 1.074 15.817 0.72 14.969 0.72 C 14.118 0.72 13.308 1.074 12.731 1.696 C 9.269 5.424 0.99 14.34 0.99 14.34 C 0.715 14.636 0.642 15.068 0.802 15.439 C 0.964 15.81 1.331 16.05 1.736 16.05 L 3.772 16.05 L 3.772 27.246 C 3.772 27.786 3.985 28.303 4.368 28.686 C 4.751 29.066 5.267 29.282 5.806 29.282 C 7.163 29.282 9.542 29.282 10.896 29.282 C 11.435 29.282 11.953 29.066 12.336 28.686 C 12.718 28.303 12.932 27.786 12.932 27.246 L 12.932 19.125 Z M 24.129 27.246 L 19.038 27.246 L 19.038 19.108 C 19.038 18.568 18.824 18.048 18.439 17.664 C 18.056 17.284 17.536 17.069 16.995 17.071 C 15.863 17.077 14.051 17.085 12.923 17.091 C 11.802 17.094 10.896 18.004 10.896 19.125 L 10.896 27.246 L 5.806 27.246 L 5.806 15.032 C 5.806 14.47 5.35 14.014 4.789 14.014 L 4.069 14.014 C 4.069 14.014 14.221 3.082 14.221 3.082 C 14.414 2.873 14.685 2.756 14.969 2.756 C 15.251 2.756 15.522 2.873 15.714 3.082 L 25.865 14.014 C 25.865 14.014 25.147 14.014 25.147 14.014 C 24.585 14.014 24.129 14.47 24.129 15.032 L 24.129 27.246 Z"/>
</svg>
