<svg viewBox="0 0 30.048 30" width="30px" height="30px" xmlns="http://www.w3.org/2000/svg">
  <path stroke="#ff304e" fill="#ff304e" d="M 24.657 19.773 L 21.25 23.181 L 21.269 20.41 C 21.271 20.274 21.168 20.162 21.034 20.152 C 20.901 20.163 20.801 20.274 20.804 20.406 L 20.789 23.752 C 20.786 23.781 20.79 23.812 20.799 23.84 C 20.799 23.844 20.799 23.847 20.799 23.849 C 20.804 23.862 20.809 23.872 20.816 23.882 C 20.824 23.894 20.833 23.907 20.845 23.918 C 20.855 23.93 20.867 23.94 20.88 23.948 C 20.887 23.953 20.897 23.958 20.904 23.96 C 20.91 23.96 20.914 23.967 20.92 23.97 C 20.929 23.973 20.941 23.976 20.951 23.979 C 20.956 23.979 20.958 23.973 20.964 23.974 C 20.98 23.975 20.996 23.973 21.01 23.972 L 24.336 23.958 C 24.511 23.958 24.621 23.767 24.533 23.616 C 24.491 23.546 24.418 23.502 24.336 23.502 L 21.582 23.517 L 25.038 20.058 C 25.167 19.931 25.108 19.711 24.933 19.664 C 24.853 19.642 24.765 19.666 24.707 19.724 L 24.657 19.773 Z"/>
  <path stroke="#ff304e" fill="#ff304e" d="M 28.638 15.282 C 28.905 14.493 28.773 13.624 28.281 12.952 C 27.951 12.473 27.459 12.126 26.896 11.978 L 26.896 7.883 C 26.896 7.014 26.213 6.29 25.344 6.29 L 12.771 6.29 L 11.721 3.79 C 11.717 3.783 11.714 3.785 11.71 3.777 C 11.193 2.859 10.218 2.292 9.164 2.296 L 2.861 2.296 C 1.994 2.29 1.288 2.991 1.286 3.859 L 1.286 22.385 C 1.271 23.816 2.434 24.98 3.864 24.969 L 18.044 24.969 C 19.085 26.556 20.892 27.646 22.942 27.646 C 27.428 27.654 30.237 22.803 28.001 18.915 C 27.897 18.734 27.783 18.559 27.661 18.391 L 28.638 15.282 Z M 2.861 2.765 L 9.164 2.765 C 10.045 2.764 10.858 3.235 11.293 3.999 L 12.398 6.627 C 12.435 6.713 12.522 6.765 12.614 6.759 L 25.344 6.759 C 25.958 6.759 26.427 7.273 26.427 7.883 L 26.427 11.89 C 26.351 11.878 26.275 11.873 26.198 11.871 L 6.369 11.871 C 5.265 11.873 4.283 12.577 3.93 13.625 L 1.756 20.532 L 1.756 6.464 L 1.756 3.859 C 1.758 3.252 2.254 2.76 2.861 2.765 Z M 3.861 24.499 C 2.42 24.505 1.404 23.087 1.873 21.725 L 4.375 13.77 C 4.665 12.916 5.467 12.34 6.369 12.34 L 26.198 12.34 C 27.643 12.344 28.656 13.768 28.188 15.133 L 27.302 17.952 C 24.327 14.595 18.836 15.718 17.416 19.972 C 16.916 21.468 17.045 23.1 17.77 24.499 L 3.861 24.499 Z M 22.939 27.186 C 18.811 27.184 16.231 22.711 18.299 19.137 C 20.364 15.562 25.526 15.565 27.589 19.142 C 28.059 19.957 28.307 20.88 28.307 21.821 C 28.303 24.783 25.904 27.182 22.942 27.186 L 22.939 27.186 Z" style="stroke-width: 2.5px;"/>
</svg>
