<svg viewBox="0 0 25 25" width="25px" height="25px" xmlns="http://www.w3.org/2000/svg">
  <path stroke="#FFFFFF" fill="#FFFFFF" d="M 12.519 1.211 C 6.316 1.211 1.269 6.258 1.269 12.461 C 1.269 18.664 6.316 23.711 12.519 23.711 C 18.722 23.711 23.769 18.664 23.769 12.461 C 23.769 6.258 18.722 1.211 12.519 1.211 Z M 12.519 21.836 C 7.349 21.836 3.144 17.631 3.144 12.461 C 3.144 7.291 7.349 3.086 12.519 3.086 C 17.689 3.086 21.894 7.291 21.894 12.461 C 21.894 17.631 17.689 21.836 12.519 21.836 Z" style="stroke-width: 1.5px;"/>
  <path stroke="#FFFFFF" fill="#FFFFFF" d="M 10.176 7.773 C 9.659 7.773 9.238 8.194 9.238 8.711 L 9.238 16.211 C 9.238 16.728 9.659 17.149 10.176 17.149 C 10.694 17.149 11.113 16.728 11.113 16.211 L 11.113 8.711 C 11.113 8.194 10.694 7.773 10.176 7.773 Z"/>
  <path stroke="#FFFFFF" fill="#FFFFFF" d="M 14.863 7.773 C 14.345 7.773 13.926 8.194 13.926 8.711 L 13.926 16.211 C 13.926 16.728 14.345 17.149 14.863 17.149 C 15.38 17.149 15.801 16.728 15.801 16.211 L 15.801 8.711 C 15.801 8.194 15.38 7.773 14.863 7.773 Z"/>
</svg>
