<svg viewBox="0 0 25 25" width="25px" height="25px" xmlns="http://www.w3.org/2000/svg">
  <path fill="#FFFFFF" stroke="#FFFFFF" d="M 12.527 1.027 C 6.18 1.027 1.027 6.18 1.027 12.527 C 1.027 18.874 6.18 24.027 12.527 24.027 C 18.874 24.027 24.027 18.874 24.027 12.527 C 24.027 6.18 18.874 1.027 12.527 1.027 Z M 12.527 22.083 C 7.257 22.083 2.97 17.797 2.97 12.527 C 2.97 7.257 7.257 2.97 12.527 2.97 C 17.797 2.97 22.083 7.257 22.083 12.527 C 22.083 17.797 17.797 22.083 12.527 22.083 Z" style="stroke-width: 1.5px;"/>
  <path fill="#FFFFFF" d="M 10.536 16.485 C 10.677 16.556 10.817 16.579 10.958 16.579 C 11.122 16.579 11.309 16.532 11.45 16.415 L 16.181 13.182 C 16.415 13.018 16.556 12.738 16.556 12.457 C 16.556 12.176 16.415 11.894 16.157 11.73 L 11.426 8.592 C 11.145 8.405 10.817 8.405 10.513 8.546 C 10.232 8.709 10.044 8.99 10.044 9.318 L 10.044 15.689 C 10.068 16.041 10.232 16.345 10.536 16.485 Z"/>
</svg>
