<svg viewBox="0 0 30 30" width="30px" height="30px" xmlns="http://www.w3.org/2000/svg">
  <path stroke="#ff304e" stroke-width="1" d="M 13.853 0.721 C 12.59 0.721 11.549 1.764 11.549 3.026 L 11.549 3.877 C 10.877 4.085 10.226 4.354 9.604 4.681 L 9.003 4.08 C 8.111 3.188 6.636 3.188 5.744 4.08 L 4.115 5.709 C 3.223 6.601 3.223 8.076 4.115 8.968 L 4.716 9.569 C 4.389 10.192 4.12 10.842 3.912 11.514 L 3.06 11.514 C 1.799 11.514 0.756 12.555 0.756 13.818 L 0.756 16.123 C 0.756 17.387 1.799 18.427 3.06 18.427 L 3.912 18.427 C 4.12 19.099 4.389 19.75 4.716 20.371 L 4.115 20.974 C 3.223 21.865 3.223 23.34 4.115 24.233 L 5.744 25.862 C 6.636 26.754 8.111 26.754 9.003 25.862 L 9.604 25.261 C 10.226 25.587 10.877 25.856 11.549 26.064 L 11.549 26.916 C 11.549 28.178 12.59 29.221 13.853 29.221 L 16.158 29.221 C 17.422 29.221 18.462 28.178 18.462 26.916 L 18.462 26.064 C 19.134 25.856 19.785 25.587 20.406 25.261 L 21.008 25.862 C 21.9 26.754 23.375 26.754 24.268 25.862 L 25.897 24.233 C 26.789 23.34 26.789 21.865 25.897 20.974 L 25.295 20.371 C 25.622 19.75 25.891 19.099 26.099 18.427 L 26.951 18.427 C 28.213 18.427 29.256 17.387 29.256 16.123 L 29.256 13.818 C 29.256 12.555 28.213 11.514 26.951 11.514 L 26.104 11.514 C 25.896 10.841 25.627 10.19 25.298 9.567 L 25.897 8.968 C 26.789 8.076 26.789 6.601 25.897 5.709 L 24.268 4.08 C 23.375 3.188 21.9 3.188 21.008 4.08 L 20.41 4.678 C 19.787 4.35 19.136 4.081 18.462 3.872 L 18.462 3.026 C 18.462 1.764 17.422 0.721 16.158 0.721 L 13.853 0.721 Z M 13.853 2.398 L 16.158 2.398 C 16.522 2.398 16.786 2.662 16.786 3.026 L 16.786 4.505 C 16.787 4.889 17.049 5.224 17.422 5.316 C 18.373 5.556 19.283 5.933 20.124 6.438 C 20.453 6.634 20.875 6.583 21.147 6.311 L 22.193 5.265 C 22.449 5.008 22.825 5.008 23.081 5.265 L 24.712 6.895 C 24.968 7.152 24.968 7.527 24.712 7.783 L 23.665 8.829 C 23.393 9.101 23.342 9.523 23.539 9.853 C 24.044 10.694 24.421 11.604 24.66 12.555 C 24.753 12.928 25.088 13.189 25.472 13.189 L 26.951 13.189 C 27.315 13.189 27.579 13.455 27.579 13.818 L 27.579 16.124 C 27.579 16.487 27.315 16.752 26.951 16.752 L 25.467 16.752 C 25.083 16.752 24.747 17.014 24.655 17.387 C 24.417 18.337 24.04 19.247 23.536 20.086 C 23.339 20.416 23.392 20.838 23.663 21.109 L 24.712 22.158 C 24.968 22.415 24.968 22.79 24.712 23.046 L 23.081 24.677 C 22.825 24.933 22.449 24.933 22.193 24.677 L 21.144 23.628 C 20.873 23.357 20.451 23.304 20.121 23.501 C 19.281 24.005 18.372 24.382 17.422 24.62 C 17.049 24.712 16.787 25.048 16.786 25.432 L 16.786 26.916 C 16.786 27.28 16.522 27.544 16.158 27.544 L 13.853 27.544 C 13.49 27.544 13.224 27.28 13.224 26.916 L 13.224 25.432 C 13.224 25.048 12.963 24.712 12.59 24.62 C 11.64 24.382 10.73 24.005 9.89 23.501 C 9.561 23.304 9.139 23.357 8.868 23.628 L 7.818 24.677 C 7.562 24.933 7.187 24.933 6.93 24.677 L 5.299 23.046 C 5.043 22.79 5.043 22.415 5.299 22.158 L 6.349 21.109 C 6.62 20.838 6.673 20.416 6.476 20.086 C 5.972 19.247 5.595 18.337 5.357 17.387 C 5.265 17.014 4.929 16.752 4.545 16.752 L 3.06 16.752 C 2.697 16.752 2.433 16.487 2.433 16.124 L 2.433 13.818 C 2.433 13.455 2.697 13.189 3.06 13.189 L 4.545 13.189 C 4.929 13.189 5.265 12.928 5.357 12.555 C 5.595 11.605 5.972 10.695 6.476 9.855 C 6.673 9.526 6.62 9.104 6.349 8.833 L 5.299 7.783 C 5.043 7.527 5.043 7.152 5.299 6.895 L 6.93 5.265 C 7.187 5.008 7.562 5.008 7.818 5.265 L 8.868 6.314 C 9.139 6.585 9.561 6.638 9.89 6.441 C 10.73 5.937 11.64 5.56 12.59 5.322 C 12.963 5.23 13.224 4.894 13.224 4.51 L 13.224 3.026 C 13.224 2.662 13.49 2.398 13.853 2.398 Z M 15.006 7.797 C 11.053 7.797 7.832 11.018 7.832 14.971 C 7.832 18.923 11.053 22.144 15.006 22.144 C 18.958 22.144 22.179 18.923 22.179 14.971 C 22.179 11.018 18.958 7.797 15.006 7.797 Z M 15.006 9.474 C 18.052 9.474 20.503 11.925 20.503 14.971 C 20.503 18.017 18.052 20.468 15.006 20.468 C 11.96 20.468 9.509 18.017 9.509 14.971 C 9.509 11.925 11.96 9.474 15.006 9.474 Z" fill="#ff304e"/>
</svg>
