<svg viewBox="0 0 22 22" width="22px" height="22px" xmlns="http://www.w3.org/2000/svg">
  <path fill="#ff4500" stroke="#ff4500" d="M 10.981 17.787 C 11.377 17.787 11.698 17.465 11.698 17.069 L 11.698 8.804 C 11.698 8.409 11.377 8.087 10.981 8.087 C 10.585 8.087 10.264 8.409 10.264 8.804 L 10.264 17.069 C 10.264 17.465 10.585 17.787 10.981 17.787 Z" style="stroke-width: 0.5px;"/>
  <path fill="#ff4500" stroke="#ff4500" d="M 13.833 17.762 C 13.858 17.767 13.883 17.767 13.907 17.767 C 14.27 17.767 14.583 17.491 14.62 17.123 L 15.458 8.897 C 15.498 8.503 15.212 8.152 14.818 8.11 C 14.419 8.072 14.072 8.357 14.033 8.751 L 13.193 16.978 C 13.153 17.371 13.439 17.723 13.833 17.762 Z" style="stroke-width: 0.5px;"/>
  <path fill="#ff4500" stroke="#ff4500" d="M 7.934 17.775 C 7.953 17.775 7.973 17.774 7.993 17.772 C 8.389 17.739 8.681 17.393 8.648 16.998 L 7.962 8.756 C 7.929 8.363 7.584 8.071 7.188 8.102 C 6.794 8.135 6.5 8.481 6.533 8.876 L 7.219 17.116 C 7.251 17.491 7.563 17.775 7.934 17.775 Z" style="stroke-width: 0.5px;"/>
  <path fill="#ff4500" stroke="#ff4500" d="M 2.198 5.239 L 3.499 5.239 L 4.529 20.702 C 4.555 21.079 4.868 21.371 5.245 21.371 L 16.717 21.371 C 17.094 21.371 17.407 21.079 17.433 20.702 L 18.463 5.239 L 19.764 5.239 C 20.16 5.239 20.481 4.918 20.481 4.523 C 20.481 4.127 20.16 3.806 19.764 3.806 L 17.793 3.806 L 15.62 3.806 L 14.708 1.07 C 14.611 0.776 14.337 0.579 14.028 0.579 L 7.934 0.579 C 7.625 0.579 7.351 0.776 7.254 1.07 L 6.342 3.806 L 4.17 3.806 L 2.198 3.806 C 1.802 3.806 1.481 4.127 1.481 4.523 C 1.481 4.918 1.802 5.239 2.198 5.239 Z M 8.451 2.012 L 13.511 2.012 L 14.109 3.806 L 7.853 3.806 L 8.451 2.012 Z M 6.858 5.239 L 15.104 5.239 L 15.111 5.239 L 17.026 5.239 L 16.047 19.938 L 5.915 19.938 L 4.937 5.239 L 6.858 5.239 Z" style="stroke-width: 0.5px;"/>
</svg>
