<svg viewBox="0 0 25 25" width="25px" height="25px" xmlns="http://www.w3.org/2000/svg">
  <path fill="#ff4500" d="M 15.989 17.058 C 15.702 17.058 15.409 16.945 15.191 16.726 L 8.296 9.831 C 7.852 9.388 7.852 8.672 8.296 8.236 C 8.74 7.792 9.455 7.792 9.891 8.236 L 16.786 15.131 C 17.23 15.574 17.23 16.29 16.786 16.726 C 16.568 16.945 16.275 17.058 15.989 17.058 Z"/>
  <path fill="#ff4500" stroke="#ff4500" d="M 12.541 24.231 C 6.06 24.231 0.791 18.962 0.791 12.481 C 0.791 6 6.06 0.731 12.541 0.731 C 19.022 0.731 24.291 6 24.291 12.481 C 24.291 18.962 19.022 24.231 12.541 24.231 Z M 12.541 2.989 C 7.31 2.989 3.049 7.25 3.049 12.481 C 3.049 17.712 7.31 21.973 12.541 21.973 C 17.772 21.973 22.033 17.712 22.033 12.481 C 22.033 7.25 17.772 2.989 12.541 2.989 Z"/>
  <path fill="#ff4500" d="M 9.093 17.058 C 8.807 17.058 8.514 16.945 8.296 16.726 C 7.852 16.282 7.852 15.567 8.296 15.131 L 15.191 8.236 C 15.634 7.792 16.35 7.792 16.786 8.236 C 17.23 8.68 17.23 9.395 16.786 9.831 L 9.891 16.726 C 9.673 16.945 9.38 17.058 9.093 17.058 Z"/>
</svg>
